<?xml version="1.0" encoding="UTF-8"?>
<!DOCTYPE svg PUBLIC "-//W3C//DTD SVG 1.1//EN" "http://www.w3.org/Graphics/SVG/1.1/DTD/svg11.dtd">
<svg xmlns="http://www.w3.org/2000/svg" version="1.1" width="512px" height="512px" style="shape-rendering:geometricPrecision; text-rendering:geometricPrecision; image-rendering:optimizeQuality; fill-rule:evenodd; clip-rule:evenodd" xmlns:xlink="http://www.w3.org/1999/xlink">
<g><path style="opacity:0.991" fill="#a7a7a7" d="M 10.5,3.5 C 175.259,9.28522 306.759,77.6186 405,208.5C 468.971,297.913 500.471,397.579 499.5,507.5C 468.875,508.659 438.209,508.825 407.5,508C 404.467,402.524 368.301,310.357 299,231.5C 220.39,147.707 123.39,104.041 8,100.5C 6.9526,97.9615 6.4526,95.2948 6.5,92.5C 7.81256,66.5018 7.81256,40.5018 6.5,14.5C 6.66667,11.8333 6.83333,9.16667 7,6.5C 7.98498,5.18586 9.15164,4.18586 10.5,3.5 Z"/></g>
<g><path style="opacity:0.99" fill="#a7a7a7" d="M 7.5,175.5 C 126.593,178.944 218.426,230.277 283,329.5C 316.151,383.431 332.818,442.097 333,505.5C 332.228,506.849 331.061,507.682 329.5,508C 299.5,508.667 269.5,508.667 239.5,508C 236.889,445.964 215.056,391.797 174,345.5C 128.689,298.438 73.189,274.105 7.5,272.5C 6.16667,240.167 6.16667,207.833 7.5,175.5 Z"/></g>
<g><path style="opacity:0.988" fill="#a7a7a7" d="M 65.5,373.5 C 101.432,372.277 125.265,388.61 137,422.5C 144.127,459.074 131.294,485.907 98.5,503C 62.9623,514.379 35.129,504.546 15,473.5C 2.01626,446.728 4.3496,421.394 22,397.5C 33.6285,384.106 48.1285,376.106 65.5,373.5 Z"/></g>
</svg>
